<svg xmlns="http://www.w3.org/2000/svg" viewBox="0 0 64 64" fill="none">
  <defs>
    <linearGradient id="bg" x1="10" y1="6" x2="54" y2="60" gradientUnits="userSpaceOnUse">
      <stop offset="0" stop-color="#0A1A2D"/>
      <stop offset="1" stop-color="#050B14"/>
    </linearGradient>
    <linearGradient id="orb" x1="8" y1="12" x2="26" y2="26" gradientUnits="userSpaceOnUse">
      <stop offset="0" stop-color="#72F6FF"/>
      <stop offset="0.55" stop-color="#4C8FFF"/>
      <stop offset="1" stop-color="#8B6CFF"/>
    </linearGradient>
    <filter id="glow" x="-50%" y="-50%" width="200%" height="200%">
      <feGaussianBlur stdDeviation="3.2" result="blur"/>
      <feMerge>
        <feMergeNode in="blur"/>
        <feMergeNode in="SourceGraphic"/>
      </feMerge>
    </filter>
  </defs>

  <rect x="3" y="3" width="58" height="58" rx="16" fill="url(#bg)"/>
  <rect x="3.5" y="3.5" width="57" height="57" rx="15.5" stroke="#7CE2FF" stroke-opacity="0.24"/>

  <circle cx="16" cy="18" r="6" fill="url(#orb)" filter="url(#glow)"/>

  <path d="M31 18.5C31 17.12 32.12 16 33.5 16H36.5C37.88 16 39 17.12 39 18.5V28H46V18.5C46 17.12 47.12 16 48.5 16H51.5C52.88 16 54 17.12 54 18.5V45.5C54 46.88 52.88 48 51.5 48H48.5C47.12 48 46 46.88 46 45.5V35H39V45.5C39 46.88 37.88 48 36.5 48H33.5C32.12 48 31 46.88 31 45.5V18.5Z" fill="#F3FBFF"/>
</svg>
